<?xml version="1.0" encoding="UTF-8"?>
<!DOCTYPE svg PUBLIC "-//W3C//DTD SVG 1.1//EN" "http://www.w3.org/Graphics/SVG/1.1/DTD/svg11.dtd">
<!-- Creator: CorelDRAW 2017 -->
<svg xmlns="http://www.w3.org/2000/svg" xml:space="preserve" width="200mm" height="75mm" version="1.1" style="shape-rendering:geometricPrecision; text-rendering:geometricPrecision; image-rendering:optimizeQuality; fill-rule:evenodd; clip-rule:evenodd"
viewBox="0 0 20000 7500"
 xmlns:xlink="http://www.w3.org/1999/xlink">
 <defs>
  <style type="text/css">
   <![CDATA[
    .fil0 {fill:black}
    .fil1 {fill:black;fill-rule:nonzero}
   ]]>
  </style>
 </defs>
 <g id="Слой_x0020_1">
  <metadata id="CorelCorpID_0Corel-Layer"/>
  <g id="_2627856205968">
   <polygon class="fil0" points="8558.86,1604.52 11364.21,1604.52 11364.21,2667.32 10079.01,2667.32 10079.01,4860.96 11364.21,4860.96 11364.21,5923.75 8558.86,5923.75 8558.86,4860.96 9844.17,4860.96 9844.17,2667.32 8558.86,2667.32 "/>
   <path class="fil0" d="M3814.22 1598.69c1334.63,4.26 2705.7,-6.5 4032.93,-0.11l-2018.99 4326.85 -2013.94 -4326.74zm3601.58 276.66l-3187.38 0.9 1596.6 3537.12 1590.78 -3538.02z"/>
   <path class="fil0" d="M392.44 1593.65c769.89,-1.23 1356.38,-0.67 1811.16,7.51 751.5,71.29 1326.79,625.06 1475.54,1305.04 61.54,747.8 54.03,1306.38 -22.31,1675.75 -141.8,714.28 -951.82,1303.8 -1345.73,1334.52 -622.92,-5.05 -1266.7,12.33 -1909.36,7.51 0.9,-1195.75 2.81,-3732.07 -9.3,-4330.33z"/>
  </g>
  <path class="fil1" d="M12959.68 2645.71c-138.66,0 -253.91,-47.98 -345.74,-143.94 -91.83,-95.97 -137.74,-214.2 -137.74,-354.7 0,-138.66 46.37,-256.43 139.12,-353.31 92.75,-96.88 208.91,-145.32 348.49,-145.32 80.81,0 149.69,13.08 206.62,39.25 56.94,26.17 112.49,64.97 166.67,116.4l-71.62 77.13c-92.75,-88.15 -193.77,-132.23 -303.04,-132.23 -106.53,0 -195.37,38.11 -266.54,114.33 -71.17,76.22 -106.75,170.8 -106.75,283.75 0,112.04 35.81,206.39 107.44,283.07 71.63,76.68 160.24,115.02 265.85,115.02 62.44,0 117.54,-11.48 165.29,-34.44 47.75,-22.96 96.42,-57.85 146.01,-104.69l71.63 75.76c-54.18,54.18 -111.12,95.05 -170.81,122.6 -59.69,27.54 -131.31,41.32 -214.88,41.32zm730.05 -16.53l0 -618.48 -254.83 0 0 -93.66 617.1 0 0 93.66 -254.83 0 0 618.48 -107.44 0zm626.74 224.52c-51.43,0 -101.93,-11.93 -151.52,-35.81l35.81 -84.02c33.98,17.44 71.17,26.17 111.57,26.17 32.14,0 59.23,-9.87 81.27,-29.62 22.04,-19.74 43.62,-54.41 64.74,-103.99l-323.7 -709.39 117.09 0 258.96 593.68 228.65 -593.68 112.95 0 -298.9 735.56c-30.31,72.54 -63.82,124.2 -100.56,154.96 -36.73,30.76 -82.18,46.14 -136.36,46.14zm599.18 -46.83l0 -271.36 77.14 0c63.36,-116.62 95.05,-281.46 95.05,-494.5l0 -123.97 506.9 0 0 618.47 107.44 0 -16.53 271.36 -88.16 0 0 -177.69 -575.77 0 -19.29 177.69 -86.78 0zm190.09 -271.36l382.93 0 0 -524.81 -298.9 0 0 99.18c0,179.07 -28.01,320.95 -84.03,425.63zm752.09 93.67l0 -712.14 106.07 0 0 712.14 -106.07 0zm-6.88 -867.79l0 -117.09 121.21 0 0 117.09 -121.21 0zm296.15 867.79l217.64 -275.49c-56.02,-12.86 -101.71,-38.11 -137.06,-75.76 -35.36,-37.65 -53.03,-84.02 -53.03,-139.12 0,-66.12 23.87,-119.61 71.62,-160.48 47.76,-40.86 113.41,-61.29 196.98,-61.29l334.72 0 0 712.14 -106.06 0 0 -258.96 -196.98 0c-8.26,11.02 -36.73,48.67 -85.4,112.95 -48.67,64.28 -85.86,112.95 -111.57,146.01l-130.86 0zm304.41 -348.49l220.4 0 0 -269.99 -223.15 0c-52.34,0 -93.44,11.71 -123.28,35.13 -29.85,23.42 -44.77,55.79 -44.77,97.11 0,42.24 15.84,75.76 47.52,100.55 31.68,24.8 72.78,37.2 123.28,37.2zm-3336.18 2051.02l0 -177.69 -614.34 0 0 -712.14 106.06 0 0 618.47 399.46 0 0 -618.47 106.07 0 0 618.47 107.44 0 -16.53 271.36 -88.16 0zm250.7 -177.69l0 -712.14 106.06 0 0 563.38 422.88 -563.38 103.31 0 0 712.14 -106.06 0 0 -563.38 -424.26 563.38 -101.93 0zm1297.56 220.39l0 -278.24c-56.94,48.67 -116.17,73 -177.69,73 -86.32,0 -156.11,-33.29 -209.38,-99.86 -53.26,-66.58 -79.89,-157.72 -79.89,-273.43 0,-113.87 26.63,-203.86 79.89,-269.98 53.27,-66.11 123.06,-99.17 209.38,-99.17 61.52,0 120.75,25.71 177.69,77.13l0 -314.05 107.44 0 0 314.05c56.93,-51.42 116.16,-77.13 177.69,-77.13 87.24,0 157.49,33.28 210.75,99.86 53.26,66.58 79.89,157.26 79.89,272.05 0,113.87 -26.86,204.09 -80.58,270.67 -53.72,66.57 -123.74,99.86 -210.06,99.86 -39.49,0 -71.86,-6.2 -97.11,-18.59 -25.25,-12.4 -52.11,-30.54 -80.58,-54.41l0 278.24 -107.44 0zm-155.65 -298.9c59.69,0 111.57,-23.42 155.65,-70.25l0 -413.24c-44.08,-46.83 -95.96,-70.25 -155.65,-70.25 -66.12,0 -116.17,24.79 -150.15,74.38 -33.97,49.59 -50.96,118 -50.96,205.24 0,182.74 67.03,274.12 201.11,274.12zm420.12 0c134.07,0 201.11,-92.29 201.11,-276.87 0,-86.32 -16.99,-154.05 -50.97,-203.18 -33.98,-49.13 -84.02,-73.69 -150.14,-73.69 -59.69,0 -112.03,23.42 -157.03,70.25l0 413.24c45,46.83 97.34,70.25 157.03,70.25zm509.65 298.9l0 -932.53 106.06 0 0 143.25c71.63,-105.6 162.54,-158.4 272.74,-158.4 90.91,0 170.34,33.74 238.3,101.24 67.95,67.49 101.93,157.72 101.93,270.67 0,111.11 -33.98,200.65 -101.93,268.6 -67.96,67.95 -147.39,101.93 -238.3,101.93 -112.03,0 -202.94,-50.5 -272.74,-151.52l0 356.76 -106.06 0zm359.52 -300.28c71.62,0 131.31,-25.03 179.06,-75.07 47.76,-50.05 71.63,-117.32 71.63,-201.8 0,-81.73 -24.33,-148.08 -73,-199.04 -48.67,-50.97 -107.9,-76.45 -177.69,-76.45 -68.88,0 -129.03,26.17 -180.45,78.52 -51.43,52.34 -77.14,118.46 -77.14,198.35 0,79.89 25.71,145.78 77.14,197.66 51.42,51.89 111.57,77.83 180.45,77.83zm1146.04 -13.09c-71.63,73.01 -160.25,109.51 -265.85,109.51 -105.61,0 -193.53,-36.27 -263.78,-108.82 -70.25,-72.54 -105.38,-160.24 -105.38,-263.09 0,-101.93 35.59,-189.4 106.75,-262.41 71.17,-73 159.56,-109.5 265.16,-109.5 105.61,0 193.77,36.27 264.47,108.81 70.71,72.55 106.07,160.25 106.07,263.1 0,101.93 -35.82,189.4 -107.44,262.4zm-263.1 14.47c76.22,0 138.9,-26.64 188.03,-79.9 49.12,-53.26 73.69,-118.92 73.69,-196.97 0,-77.14 -25.48,-142.8 -76.45,-196.98 -50.96,-54.18 -113.64,-81.27 -188.02,-81.27 -76.22,0 -138.66,26.86 -187.33,80.58 -48.67,53.72 -73.01,119.61 -73.01,197.67 0,77.14 25.25,142.56 75.76,196.28 50.51,53.73 112.95,80.59 187.33,80.59zm562 78.51l0 -712.14 344.36 0c70.71,0 127.19,16.07 169.43,48.21 42.24,32.14 63.36,75.3 63.36,129.48 0,76.22 -39.48,130.86 -118.46,163.92 104.69,28.46 157.03,87.23 157.03,176.31 0,59.69 -23.42,106.98 -70.25,141.88 -46.83,34.89 -109.74,52.34 -188.71,52.34l-356.76 0zm106.06 -90.91l236.93 0c50.5,0 90.45,-10.56 119.83,-31.68 29.39,-21.12 44.08,-50.51 44.08,-88.16 0,-34.9 -15.38,-61.99 -46.14,-81.27 -30.77,-19.28 -74.61,-28.93 -131.55,-28.93l-223.15 0 0 230.04zm0 -315.44l219.02 0c44.08,0 79.2,-9.87 105.37,-29.61 26.18,-19.75 39.26,-47.98 39.26,-84.72 0,-30.3 -12.4,-54.63 -37.19,-73 -24.79,-18.37 -59.69,-27.55 -104.69,-27.55l-221.77 0 0 214.88zm701.13 406.35l0 -712.14 106.06 0 0 563.38 422.88 -563.38 103.31 0 0 712.14 -106.06 0 0 -563.38 -424.26 563.38 -101.93 0zm804.43 0l279.62 -362.27 -268.6 -349.87 121.22 0 210.75 275.49 210.75 -275.49 118.46 0 -269.98 347.12 281 365.02 -122.6 0 -220.39 -290.64 -221.77 290.64 -118.46 0zm-6352.8 1745.23l0 -932.53 106.06 0 0 143.25c71.63,-105.6 162.54,-158.4 272.74,-158.4 90.91,0 170.34,33.74 238.3,101.24 67.95,67.49 101.93,157.72 101.93,270.67 0,111.11 -33.98,200.65 -101.93,268.6 -67.96,67.95 -147.39,101.93 -238.3,101.93 -112.03,0 -202.94,-50.5 -272.74,-151.52l0 356.76 -106.06 0zm359.52 -300.28c71.62,0 131.31,-25.03 179.06,-75.07 47.76,-50.05 71.63,-117.32 71.63,-201.8 0,-81.73 -24.33,-148.08 -73,-199.04 -48.67,-50.97 -107.9,-76.45 -177.69,-76.45 -68.88,0 -129.03,26.17 -180.45,78.52 -51.43,52.34 -77.14,118.46 -77.14,198.35 0,79.89 25.71,145.78 77.14,197.66 51.42,51.89 111.57,77.83 180.45,77.83zm564.75 79.89l0 -712.14 106.07 0 0 712.14 -106.07 0zm-6.88 -867.79l0 -117.09 121.21 0 0 117.09 -121.21 0zm359.51 867.79l0 -712.14 106.06 0 0 618.47 347.12 0 0 -618.47 106.07 0 0 618.47 347.11 0 0 -618.47 107.44 0 0 712.14 -1013.8 0zm1562.02 16.53c-100.09,0 -184.34,-34.67 -252.76,-104 -68.41,-69.33 -102.62,-158.63 -102.62,-267.91 0,-103.77 32.6,-191.7 97.8,-263.78 65.2,-72.09 146.47,-108.13 243.81,-108.13 101.93,0 182.74,35.81 242.43,107.44 59.69,71.62 89.54,161.62 89.54,269.98 0,13.77 -0.46,26.17 -1.38,37.19l-564.76 0c7.35,72.54 34.67,130.17 81.96,172.87 47.29,42.7 103.54,64.05 168.74,64.05 85.4,0 160.24,-33.52 224.52,-100.55l66.12 59.23c-79.89,89.07 -177.69,133.61 -293.4,133.61zm-247.94 -414.61l458.69 0c-6.42,-68.88 -29.15,-126.04 -68.18,-171.5 -39.03,-45.45 -92.06,-68.18 -159.1,-68.18 -60.6,0 -112.49,22.5 -155.65,67.5 -43.16,44.99 -68.41,102.39 -75.76,172.18zm752.09 398.08l0 -712.14 106.06 0 0 307.17 410.48 0 0 -307.17 106.07 0 0 712.14 -106.07 0 0 -311.3 -410.48 0 0 311.3 -106.06 0zm859.53 0l0 -712.14 106.06 0 0 267.22 190.09 0c82.65,0 150.14,17.68 202.49,53.04 52.34,35.35 78.51,88.84 78.51,160.47 0,70.71 -24.33,126.95 -73,168.74 -48.67,41.78 -113.87,62.67 -195.6,62.67l-308.55 0zm106.06 -93.67l192.85 0c54.18,0 96.19,-11.48 126.03,-34.43 29.85,-22.96 44.77,-56.48 44.77,-100.56 0,-40.4 -15.38,-71.39 -46.14,-92.97 -30.77,-21.58 -73.7,-32.37 -128.8,-32.37l-188.71 0 0 260.33z"/>
 </g>
</svg>
