<?xml version="1.0" standalone="no"?>
<!DOCTYPE svg PUBLIC "-//W3C//DTD SVG 20010904//EN"
 "http://www.w3.org/TR/2001/REC-SVG-20010904/DTD/svg10.dtd">
<svg version="1.0" xmlns="http://www.w3.org/2000/svg"
 width="1605.000000pt" height="102.000000pt" viewBox="0 0 1605.000000 102.000000"
 preserveAspectRatio="xMidYMid meet">

<g transform="translate(0.000000,102.000000) scale(0.100000,-0.100000)"
fill="#000000" stroke="none">
<path d="M10 960 l0 -60 339 0 c400 0 390 2 500 -109 88 -90 113 -152 113
-281 0 -132 -25 -193 -117 -284 -108 -107 -103 -106 -502 -106 l-333 0 0 -60
0 -60 303 0 c385 0 444 11 562 105 140 111 219 295 194 455 -39 246 -178 402
-400 449 -29 7 -176 11 -354 11 l-305 0 0 -60z"/>
<path d="M2621 1009 c-24 -5 -75 -21 -114 -36 -59 -23 -79 -38 -147 -110 -86
-92 -102 -119 -126 -214 -12 -48 -15 -88 -11 -160 13 -208 119 -368 298 -446
82 -36 168 -45 434 -41 l250 3 3 58 3 57 -306 0 -306 0 -52 26 c-78 40 -158
127 -192 210 -23 57 -28 84 -28 154 0 120 34 203 118 285 106 105 105 105 460
105 l305 0 0 60 0 60 -272 -1 c-150 -1 -293 -5 -317 -10z"/>
<path d="M4350 960 l0 -60 205 0 205 0 0 -451 0 -450 53 3 52 3 3 447 2 448
208 2 207 3 3 58 3 57 -471 0 -470 0 0 -60z"/>
<path d="M6763 1007 c-86 -19 -96 -38 -284 -523 -93 -241 -172 -449 -176 -462
-5 -21 -2 -22 46 -22 38 0 53 4 59 18 6 9 83 206 172 437 90 231 170 425 179
432 21 16 73 16 94 0 10 -6 93 -208 186 -447 l169 -435 42 -3 c23 -2 48 -1 55
2 10 3 -36 133 -164 463 -154 400 -181 463 -213 495 -43 43 -101 59 -165 45z"/>
<path d="M8470 509 l0 -510 48 3 47 3 3 508 2 507 -50 0 -50 0 0 -511z"/>
<path d="M9790 663 c0 -343 1 -361 22 -426 17 -53 35 -83 79 -130 89 -98 106
-102 434 -102 l270 0 3 58 3 57 -269 0 -268 0 -55 28 c-45 22 -59 36 -81 81
l-28 55 0 368 0 368 -55 0 -55 0 0 -357z"/>
<path d="M11650 509 l0 -510 53 3 52 3 3 508 2 507 -55 0 -55 0 0 -511z"/>
<path d="M13375 1006 c-169 -42 -299 -163 -356 -331 -18 -56 -23 -92 -24 -175
0 -94 3 -113 29 -175 52 -126 150 -230 262 -280 87 -39 169 -47 444 -43 l255
3 3 58 3 57 -305 0 c-300 0 -306 0 -358 24 -66 30 -169 133 -200 201 -19 43
-22 67 -23 165 0 104 3 120 26 170 31 65 135 171 194 197 35 16 80 19 350 23
l310 5 3 58 3 57 -283 -1 c-188 0 -300 -5 -333 -13z"/>
<path d="M15490 1008 c-62 -17 -96 -52 -128 -130 -57 -139 -332 -857 -332
-868 0 -7 19 -10 53 -8 l52 3 162 430 c119 314 168 434 185 447 27 21 77 23
101 5 10 -7 89 -203 181 -447 l163 -435 59 0 c34 0 58 4 57 10 -1 6 -80 213
-176 462 -159 412 -178 455 -213 487 -21 19 -53 37 -72 41 -18 3 -39 8 -45 10
-7 2 -28 -1 -47 -7z"/>
<path d="M2660 510 l0 -60 273 2 272 3 3 58 3 57 -276 0 -275 0 0 -60z"/>
</g>
</svg>
